<svg xmlns="http://www.w3.org/2000/svg" viewBox="0 0 240.5 360.5" xmlns:v="https://vecta.io/nano"><rect x=".25" y=".25" width="240" height="360" rx="40" fill="#fff" stroke="#000" stroke-width=".5"/><rect x="20.25" y="20.25" width="200" height="320" rx="20" fill="#5a5"/><path d="M180.25 80.25a160 160 0 0 0-160 160 40 40 0 0 0 40 40 160 160 0 0 0 160-160 40 40 0 0 0-40-40z" fill="#fff"/><path d="M86.25,120.25v40h20v-20h40l-40,100h20l40-100v-20h-80Z" fill="#5a5"/><path d="M30.25 30.25v20h10v-10h20l-20 50h10l20-50v-10h-40zm180 300v-20h-10v10h-20l20-50h-10l-20 50v10h40z" fill="#fff"/></svg>