<svg xmlns="http://www.w3.org/2000/svg" viewBox="0 0 240.5 360.5" xmlns:v="https://vecta.io/nano"><rect x=".25" y=".25" width="240" height="360" rx="40" fill="#fff" stroke="#000" stroke-width=".5"/><rect x="20.25" y="20.25" width="200" height="320" rx="20" fill="#5a5"/><g fill="#fff"><path d="M180.25 80.25a160 160 0 0 0-160 160 40 40 0 0 0 40 40 160 160 0 0 0 160-160 40 40 0 0 0-40-40z"/><path d="M93.11 150.25h40c5.52 0 8.84 4 7.42 9L120 231.22c-1.42 5-7 9-12.58 9h-40c-5.52 0-8.84-4-7.42-9l20.56-71.94c1.44-4.99 7.02-9.03 12.55-9.03z" stroke="#000" stroke-width=".51"/></g><path d="M100.25 160.25h20c5.52 0 8.84 4 7.42 9l-14.84 51.94c-1.42 5-7.06 9-12.58 9h-20c-5.52 0-8.84-4-7.42-9l14.84-51.94c1.42-4.96 7.06-9 12.58-9z" fill="#5a5"/><path d="M133.11 120.25h40c5.52 0 8.84 4 7.42 9L160 201.22c-1.42 5-7.05 9-12.58 9h-40c-5.52 0-8.84-4-7.42-9l20.56-71.94c1.44-4.99 7.02-9.03 12.55-9.03z" fill="#fff" stroke="#000" stroke-width=".51"/><path d="M140.25 130.25h20c5.52 0 8.84 4 7.42 9l-14.84 51.94c-1.43 5-7.06 9-12.58 9h-20c-5.52 0-8.85-4-7.42-9l14.84-51.94c1.42-4.96 7.06-9 12.58-9z" fill="#5a5"/><path d="M34.25 50.25v10h-10v10h10v10h10v-10h10v-10h-10v-10zm46-20a20 20 0 0 0-20 20v2h10v-2a10 10 0 0 1 20 0c0 2.25-1.87 6.68-3.82 8.22-10.61 8.35-10.5 7-26.18 17.78v14h40v-14h-10v4h-18c12.38-8.72 13.29-8.51 23-17.19 3.1-2.78 5-8.3 5-12.81a20 20 0 0 0-20-20zm126 280v-10h10v-10h-10v-10h-10v10h-10v10h10v10zm-46 20a20 20 0 0 0 20-20v-2h-10v2a10 10 0 0 1-20 0c0-2.25 1.87-6.68 3.82-8.22 10.61-8.35 10.5-7 26.18-17.78v-14h-40v14h10v-4h18c-12.38 8.72-13.29 8.51-23 17.19-3.1 2.78-5 8.3-5 12.81a20 20 0 0 0 20 20z" fill="#fff"/></svg>