<svg xmlns="http://www.w3.org/2000/svg" xmlns:xlink="http://www.w3.org/1999/xlink" viewBox="0 0 240.5 360.5" xmlns:v="https://vecta.io/nano"><rect x=".25" y=".25" width="240" height="360" rx="40" fill="#fff" stroke="#000" stroke-width=".5"/><rect x="20.25" y="20.25" width="200" height="320" rx="20"/><g fill="#fff"><path d="M180.25 80.25a160 160 0 0 0-160 160 40 40 0 0 0 40 40 160 160 0 0 0 160-160 40 40 0 0 0-40-40zm-100.4-50l-19.6 40v10h24v10h10v-10h6v-10h-6v-20h-10v20h-13.6l19.6-40zm-45.6 20v10h-10v10h10v10h10v-10h10v-10h-10v-10zm126.4 280l19.6-40v-10h-24v-10h-10v10h-6v10h6v20h10v-20h13.6l-19.6 40zm45.6-20v-10h10v-10h-10v-10h-10v10h-10v10h10v10z"/><path d="M83.11 130.25h40c5.52 0 8.84 4 7.42 9L110 211.22c-1.42 5-7 9-12.58 9h-40c-5.52 0-8.84-4-7.42-9l20.56-71.94c1.44-4.99 7.02-9.03 12.55-9.03z" stroke="#000" stroke-width=".51"/></g><use xlink:href="#B" fill="#f55"/><path d="M123.11 100.25h40c5.52 0 8.84 4 7.42 9L150 181.22c-1.42 5-7.05 9-12.58 9h-40c-5.52 0-8.84-4-7.42-9l20.56-71.94c1.44-4.99 7.02-9.03 12.55-9.03z" fill="#fff" stroke="#000" stroke-width=".51"/><use xlink:href="#B" x="40" y="-30" fill="#55f"/><path d="M113.11 160.25h40c5.52 0 8.84 4 7.42 9L140 241.22c-1.42 5-7.05 9-12.58 9h-40c-5.52 0-8.84-4-7.42-9l20.56-71.94c1.44-4.99 7.02-9.03 12.55-9.03z" fill="#fff" stroke="#000" stroke-width=".51"/><use xlink:href="#B" x="30" y="30" fill="#fa0"/><path d="M153.11 130.25h40c5.52 0 8.84 4 7.42 9L180 211.22c-1.42 5-7.05 9-12.58 9h-40c-5.52 0-8.84-4-7.42-9l20.56-71.94c1.44-4.99 7.02-9.03 12.55-9.03z" fill="#fff" stroke="#000" stroke-width=".51"/><use xlink:href="#B" x="70" fill="#5a5"/><defs ><path id="B" d="M90.25 140.25h20c5.52 0 8.84 4 7.42 9l-14.84 51.94c-1.43 5-7.06 9-12.58 9h-20c-5.52 0-8.85-4-7.42-9l14.84-51.94c1.42-4.96 7.06-9 12.58-9z"/></defs></svg>