<svg xmlns="http://www.w3.org/2000/svg" xmlns:xlink="http://www.w3.org/1999/xlink" viewBox="0 0 242 362" xmlns:v="https://vecta.io/nano"><rect x="1" y="1" width="240" height="360" rx="40" fill="#fff" stroke="#000" stroke-width=".5"/><rect x="21" y="21" width="200" height="320" rx="20"/><use xlink:href="#B" fill="#fff"/><use xlink:href="#C" fill="#fa0"/><path d="M121,181,61,281A160,160,0,0,0,209.25,181Z" fill="#0a0"/><path d="M181,81A160,160,0,0,0,32.75,181H121Z" fill="#f55"/><use xlink:href="#D" fill="#55f"/><use xlink:href="#E" fill="#fa0"/><path d="M56,56,41,81A40,40,0,0,0,78.06,56Z" fill="#0a0"/><path d="M71,31A40,40,0,0,0,33.94,56H56Z" fill="#f55"/><use xlink:href="#F" fill="#55f"/><use xlink:href="#G" fill="#fa0"/><path d="M186,306l-15,25a40,40,0,0,0,37.06-25Z" fill="#0a0"/><path d="M201,281a40,40,0,0,0-37.06,25H186Z" fill="#f55"/><use xlink:href="#H" fill="#55f"/><g fill="none" stroke="#fff" stroke-width="4"><use xlink:href="#I"/><use xlink:href="#J"/><use xlink:href="#K"/></g><rect x="1" y="1" width="240" height="360" rx="40" fill="#fff" stroke="#000" stroke-width=".5"/><rect x="21" y="21" width="200" height="320" rx="20"/><use xlink:href="#B" fill="#fff"/><use xlink:href="#C" fill="#fa0"/><path d="M121,181,61,281A160,160,0,0,0,209.25,181Z" fill="#0a0"/><path d="M181,81A160,160,0,0,0,32.75,181H121Z" fill="#f55"/><use xlink:href="#D" fill="#55f"/><use xlink:href="#E" fill="#fa0"/><path d="M56,56,41,81A40,40,0,0,0,78.06,56Z" fill="#0a0"/><path d="M71,31A40,40,0,0,0,33.94,56H56Z" fill="#f55"/><use xlink:href="#F" fill="#55f"/><use xlink:href="#G" fill="#fa0"/><path d="M186,306l-15,25a40,40,0,0,0,37.06-25Z" fill="#0a0"/><path d="M201,281a40,40,0,0,0-37.06,25H186Z" fill="#f55"/><use xlink:href="#H" fill="#55f"/><g fill="none" stroke="#fff" stroke-width="4"><use xlink:href="#I"/><use xlink:href="#J"/><use xlink:href="#K"/></g><rect x="1" y="1" width="240" height="360" rx="40" fill="#fff" stroke="#000" stroke-width=".5"/><rect x="21" y="21" width="200" height="320" rx="20"/><use xlink:href="#B" fill="#fff"/><use xlink:href="#C" fill="#fa0"/><path d="M121,181,61,281A160,160,0,0,0,209.25,181Z" fill="#0a0"/><path d="M181,81A160,160,0,0,0,32.75,181H121Z" fill="#f55"/><use xlink:href="#D" fill="#55f"/><use xlink:href="#E" fill="#fa0"/><path d="M56,56,41,81A40,40,0,0,0,78.06,56Z" fill="#0a0"/><path d="M71,31A40,40,0,0,0,33.94,56H56Z" fill="#f55"/><use xlink:href="#F" fill="#55f"/><use xlink:href="#G" fill="#fa0"/><path d="M186,306l-15,25a40,40,0,0,0,37.06-25Z" fill="#0a0"/><path d="M201,281a40,40,0,0,0-37.06,25H186Z" fill="#f55"/><use xlink:href="#H" fill="#55f"/><g fill="none" stroke="#fff" stroke-width="4"><use xlink:href="#I"/><use xlink:href="#J"/><use xlink:href="#K"/></g><defs ><path id="B" d="M181 81A160 160 0 0 0 21 241a40 40 0 0 0 40 40 160 160 0 0 0 160-160 40 40 0 0 0-40-40z"/><path id="C" d="M32.75,181A159.39,159.39,0,0,0,21,241a40,40,0,0,0,40,40l60-100Z"/><path id="D" d="M181 81l-60 100h88.25A159.39 159.39 0 0 0 221 121a40 40 0 0 0-40-40z"/><path id="E" d="M33.94,56A39.82,39.82,0,0,0,31,71,10,10,0,0,0,41,81L56,56Z"/><path id="F" d="M71,31,56,56H78.06A39.82,39.82,0,0,0,81,41,10,10,0,0,0,71,31Z"/><path id="G" d="M163.94,306A39.82,39.82,0,0,0,161,321a10,10,0,0,0,10,10l15-25Z"/><path id="H" d="M201 281l-15 25h22.06a39.82 39.82 0 0 0 2.94-15 10 10 0 0 0-10-10z"/><path id="I" d="M181 81A160.23 160.23 0 0 0 21 241a40 40 0 0 0 40 40 160 160 0 0 0 148.25-100A159.39 159.39 0 0 0 221 121a40 40 0 0 0-40-40z"/><path id="J" d="M71,31A40.06,40.06,0,0,0,31,71,10,10,0,0,0,41,81,40.06,40.06,0,0,0,81,41,10,10,0,0,0,71,31Z"/><path id="K" d="M201 281a40.06 40.06 0 0 0-40 40 10 10 0 0 0 10 10 40.06 40.06 0 0 0 40-40 10 10 0 0 0-10-10z"/></defs></svg>