<svg xmlns="http://www.w3.org/2000/svg" xmlns:xlink="http://www.w3.org/1999/xlink" viewBox="0 0 240.5 360.5" xmlns:v="https://vecta.io/nano"><rect x=".25" y=".25" width="240" height="360" rx="40" fill="#fff" stroke="#000" stroke-width=".5"/><rect x="20.25" y="20.25" width="200" height="320" rx="20" fill="#f55"/><path d="M180.25 80.25a160 160 0 0 0-160 160 40 40 0 0 0 40 40 160 160 0 0 0 160-160 40 40 0 0 0-40-40z" fill="#fff"/><path d="M120.25 120.25a40 40 0 0 0-40 40v40a40 40 0 0 0 80 0v-40a40 40 0 0 0-40-40zm0 20a20 20 0 0 1 20 20v40a20 20 0 0 1-40 0v-40a20 20 0 0 1 20-20z" fill="#f55"/><g fill="#fff"><use xlink:href="#B"/><use xlink:href="#B" x="140" y="240"/></g><defs ><path id="B" d="M50.25 30.25a20 20 0 0 0-20 20v20a20 20 0 0 0 40 0v-20a20 20 0 0 0-20-20zm0 10a10 10 0 0 1 10 10v20a10 10 0 0 1-20 0v-20a10 10 0 0 1 10-10z"/></defs></svg>