<svg xmlns="http://www.w3.org/2000/svg" viewBox="0 0 240.5 360.5" xmlns:v="https://vecta.io/nano"><rect x=".25" y=".25" width="240" height="360" rx="40" fill="#fff" stroke="#000" stroke-width=".5"/><rect x="20.25" y="20.25" width="200" height="320" rx="20" fill="#f55"/><path d="M180.25 80.25a160 160 0 0 0-160 160 40 40 0 0 0 40 40 160 160 0 0 0 160-160 40 40 0 0 0-40-40z" fill="#fff"/><path d="M112.25,120.25l-20,20v24l20-20v96h20v-120Z" fill="#f55"/><path d="M40.25 30.25l-10 10v12l10-10v48h10v-60zm160 300l10-10v-12l-10 10v-48h-10v60z" fill="#fff"/></svg>