<svg xmlns="http://www.w3.org/2000/svg" viewBox="0 0 240.5 360.5" xmlns:v="https://vecta.io/nano"><rect x=".25" y=".25" width="240" height="360" rx="40" fill="#fff" stroke="#000" stroke-width=".5"/><rect x="20.25" y="20.25" width="200" height="320" rx="20" fill="#f55"/><path d="M180.25 80.25a160 160 0 0 0-160 160 40 40 0 0 0 40 40 160 160 0 0 0 160-160 40 40 0 0 0-40-40z" fill="#fff"/><path d="M120.25,120.25a30,30,0,0,0-30,30h20a10,10,0,1,1,10,10h-12v20h12a20,20,0,1,1-20,20h-20a40,40,0,1,0,63.88-32,29.88,29.88,0,0,0-23.88-48Z" fill="#f55"/><path d="M50.25 30.25a15 15 0 0 0-15 15h10a5 5 0 1 1 5 5h-6v10h6a10 10 0 1 1-10 10h-10a20 20 0 1 0 31.94-16 14.83 14.83 0 0 0 3.06-9 15 15 0 0 0-15-15zm140 300a15 15 0 0 0 15-15h-10a5 5 0 1 1-5-5h6v-10h-6a10 10 0 1 1 10-10h10a20 20 0 1 0-31.94 16 14.83 14.83 0 0 0-3.06 9 15 15 0 0 0 15 15z" fill="#fff"/></svg>