<svg xmlns="http://www.w3.org/2000/svg" viewBox="0 0 240.5 360.5" xmlns:v="https://vecta.io/nano"><rect x=".25" y=".25" width="240" height="360" rx="40" fill="#fff" stroke="#000" stroke-width=".5"/><rect x="20.25" y="20.25" width="200" height="320" rx="20" fill="#f55"/><path d="M180.25 80.25a160 160 0 0 0-160 160 40 40 0 0 0 40 40 160 160 0 0 0 160-160 40 40 0 0 0-40-40z" fill="#fff"/><path d="M84.25,120.25v60h40a20,20,0,1,1-20,20h-20a40,40,0,1,0,40-40h-20v-20h56v-20h-76Z" fill="#f55"/><path d="M30.25 30.25v30h20a10 10 0 1 1-10 10h-10a20 20 0 1 0 20-20h-10v-10h28v-10h-38zm180 300v-30h-20a10 10 0 1 1 10-10h10a20 20 0 1 0-20 20h10v10h-28v10h38z" fill="#fff"/></svg>