<svg xmlns="http://www.w3.org/2000/svg" viewBox="0 0 240.5 360.5" xmlns:v="https://vecta.io/nano"><rect x=".25" y=".25" width="240" height="360" rx="40" fill="#fff" stroke="#000" stroke-width=".5"/><rect x="20.25" y="20.25" width="200" height="320" rx="20" fill="#f55"/><path d="M180.25 80.25a160 160 0 0 0-160 160 40 40 0 0 0 40 40 160 160 0 0 0 160-160 40 40 0 0 0-40-40z" fill="#fff"/><path d="M120.25 120.25a30 30 0 0 0-30 30 29.65 29.65 0 0 0 6.13 18 40 40 0 1 0 47.75 0 29.88 29.88 0 0 0-23.88-48zm0 20a10 10 0 1 1-10 10 10 10 0 0 1 10-10zm-2 40a19.06 19.06 0 0 1 2 0 19 19 0 1 1-2 0z" fill="#f55"/><path d="M50.25 30.25a15 15 0 0 0-15 15 14.83 14.83 0 0 0 3.06 9 20 20 0 1 0 23.88 0 14.83 14.83 0 0 0 3.06-9 15 15 0 0 0-15-15zm0 10a5 5 0 1 1-5 5 5 5 0 0 1 5-5zm-1 20a8.34 8.34 0 0 1 1 0 9.51 9.51 0 1 1-1 0zm141 270a15 15 0 0 1-15-15 14.83 14.83 0 0 1 3.06-9 20 20 0 1 1 23.88 0 14.83 14.83 0 0 1 3.06 9 15 15 0 0 1-15 15zm0-10a5 5 0 1 0-5-5 5 5 0 0 0 5 5zm-1-20a8.34 8.34 0 0 0 1 0 9.51 9.51 0 1 0-1 0z" fill="#fff"/></svg>