<svg xmlns="http://www.w3.org/2000/svg" viewBox="0 0 240.5 360.5" xmlns:v="https://vecta.io/nano"><rect x=".25" y=".25" width="240" height="360" rx="40" fill="#fff" stroke="#000" stroke-width=".5"/><rect x="20.25" y="20.25" width="200" height="320" rx="20" fill="#f55"/><path d="M180.25 80.25a160 160 0 0 0-160 160 40 40 0 0 0 40 40 160 160 0 0 0 160-160 40 40 0 0 0-40-40z" fill="#fff"/><path d="M120.38,120.25a60,60,0,1,0,42.37,17.62,59.9,59.9,0,0,0-42.37-17.62Zm-.13,20a40.08,40.08,0,0,1,20.25,5.5L85.75,200.5a40,40,0,0,1,34.5-60.25Zm34.5,19.63a40,40,0,0,1-54.87,54.75Z" fill="#f55"/><path d="M60.31 30.25a30 30 0 1 0 21.19 8.81 29.94 29.94 0 0 0-21.19-8.81zm-.06 10A20 20 0 0 1 70.37 43L43 70.37a20 20 0 0 1 3.13-24.31 19.82 19.82 0 0 1 14.12-5.81zm17.25 9.81a20 20 0 0 1-27.44 27.37L77.5 50.06zm102.81 220.19a30 30 0 1 0 21.19 8.81 29.94 29.94 0 0 0-21.19-8.81zm-.06 10a20 20 0 0 1 10.12 2.75L163 310.37a20 20 0 0 1 3.13-24.31 19.82 19.82 0 0 1 14.12-5.81zm17.25 9.81a20 20 0 0 1-27.44 27.37l27.44-27.37z" fill="#fff"/></svg>