<svg xmlns="http://www.w3.org/2000/svg" viewBox="0 0 240.5 360.5" xmlns:v="https://vecta.io/nano"><rect x=".25" y=".25" width="240" height="360" rx="40" fill="#fff" stroke="#000" stroke-width=".5"/><rect x="20.25" y="20.25" width="200" height="320" rx="20" fill="#fa0"/><path d="M180.25 80.25a160 160 0 0 0-160 160 40 40 0 0 0 40 40 160 160 0 0 0 160-160 40 40 0 0 0-40-40z" fill="#fff"/><path d="M115.45,120.25l-39.2,80v20h48v20h20v-20h12v-20h-12v-40h-20v40H97.05l39.2-80Z" fill="#fa0"/><path d="M49.45 30.25l-19.6 40v10h24v10h10v-10h6v-10h-6v-20h-10v20h-13.6l19.6-40zm140.8 300l19.6-40v-10h-24v-10h-10v10h-6v10h6v20h10v-20h13.6l-19.6 40z" fill="#fff"/></svg>