<svg xmlns="http://www.w3.org/2000/svg" viewBox="0 0 240.5 360.5" xmlns:v="https://vecta.io/nano"><rect x=".25" y=".25" width="240" height="360" rx="40" fill="#fff" stroke="#000" stroke-width=".5"/><rect x="20.25" y="20.25" width="200" height="320" rx="20" fill="#fa0"/><path d="M180.25 80.25a160 160 0 0 0-160 160 40 40 0 0 0 40 40 160 160 0 0 0 160-160 40 40 0 0 0-40-40z" fill="#fff"/><path d="M120.25 115.25l10 10-40 40c-10 10-10 30 0 40l20-20 40-40 10 10v-40zm0 130l-10-10 40-40c10-10 10-30 0-40l-20 20-40 40-10-10v40z" fill="#fa0"/><path d="M50.25 30.25l5 5-20 20c-5 5-5 15 0 20l10-10 20-20 5 5v-20zm0 65l-5-5 20-20c5-5 5-15 0-20l-10 10-20 20-5-5v20zm140 170l5 5-20 20c-5 5-5 15 0 20l10-10 20-20 5 5v-20zm0 65l-5-5 20-20c5-5 5-15 0-20l-10 10-20 20-5-5v20z" fill="#fff"/></svg>