<svg xmlns="http://www.w3.org/2000/svg" viewBox="0 0 240.5 360.5" xmlns:v="https://vecta.io/nano"><rect x=".25" y=".25" width="240" height="360" rx="40" fill="#fff" stroke="#000" stroke-width=".5"/><rect x="20.25" y="20.25" width="200" height="320" rx="20" fill="#55f"/><path d="M180.25 80.25a160 160 0 0 0-160 160 40 40 0 0 0 40 40 160 160 0 0 0 160-160 40 40 0 0 0-40-40z" fill="#fff"/><path d="M120.25 120.25a40 40 0 1 0 20 74.63v5.37a19.89 19.89 0 0 1-37.75 8.88l-18 9a40 40 0 0 0 75.75-17.88v-40a40 40 0 0 0-40-40zm0 20a20 20 0 1 1-20 20 20 20 0 0 1 20-20zm-20 104v8h40v-8z" fill="#55f"/><path d="M50.25 90.25a20 20 0 0 0 20-20v-20a20 20 0 1 0-10 17.31v2.69a9.94 9.94 0 0 1-18.87 4.44l-9 4.5a19.92 19.92 0 0 0 17.87 11.06zm0-30a10 10 0 1 1 10-10 10 10 0 0 1-10 10zm140 210a20 20 0 0 0-20 20v20a20 20 0 1 0 10-17.31v-2.69a10 10 0 0 1 18.88-4.44l9-4.5a19.94 19.94 0 0 0-17.88-11.06zm0 30a10 10 0 1 1-10 10 10 10 0 0 1 10-10z" fill="#fff"/></svg>